<svg xmlns="http://www.w3.org/2000/svg" width="320" height="200" fill="none" viewBox="0 0 320 200"><path fill="#66B1FF" d="M250.303 158.945c5.687-3.34 9.672-9.13 11.795-15.37s2.533-13 2.293-19.54a105.24 105.24 0 0 0-17.442-54.12 31.9 31.9 0 0 0-12.465 12.07 99.9 99.9 0 0 0-12.015 44.76c-.16 6 .25 12.16 2.313 17.83 2.062 5.67 5.957 10.85 11.384 13.5 5.426 2.65 12.435 2.37 17.021-1.52M82.555 46.874a82 82 0 0 0-18.103 16.54l-.12-.07c-8.92-4.77-14.127 0-15.309 7.09-1.251 7.59.42 10.84 4.596 13.53a56 56 0 0 0-1.943 10c-1.792 18.29 8.22 53.81 40.631 60.81 10.323 2.23 24.16 2.24 38.268 1.21l45.426-72.09c-14.368-7.19-47.109-61.43-93.446-37.02"/><path fill="#00A743" d="M239.01 68.634c.42 2.59 6.258 3.81 13.016 2.7s11.915-4.11 11.494-6.71-6.258-3.81-13.016-2.7a28.5 28.5 0 0 0-6.148 1.69c4.146-4.73 5.147-10.65 2.143-13.65-3.204-3.19-9.712-1.85-14.568 3a25.9 25.9 0 0 0-10.463-13.19c-9.532-5.92-21.637-6.13-31.729-1.39 1.201-3.79.881-7.11-1.152-8.56-1.392-1-3.344-1-5.457-.07.241-2.46-.33-4.47-1.792-5.52-3.134-2.23-9.141.8-13.406 6.77-2.534 3.53-3.875 7.3-3.905 10.25-9.632-1.2-20.306 4.83-29.907 17.61a24.6 24.6 0 0 0-12.926 7.11c-4.356 4.35-6.879 9.57-7.29 14.16a18 18 0 0 0-2.693 2.23c-4.856 4.84-6.198 11.36-3.004 14.55 1.693 1.7 4.336 2.1 7.169 1.39-6.007 19.9-10.012 44.78-10.433 74.34 8.851.17 17.092.31 24.791.43 3.004.35 68.245 7.76 105.361-.37 3.424 0 7.439-1.69 10.924-4.78a44.5 44.5 0 0 0 6.458-6.05c7.279-8.26 10.433-17.37 7.008-20.35-2.743-2.41-8.911-.09-15.018 5.25 2.743-8.27 2.002-15.76-1.933-17.43a4 4 0 0 0-.43-.13c4.325-2.67 6.768-6.27 5.737-9-.701-1.91-2.904-3-5.837-3.32a74 74 0 0 0 1.511-7.86c1.823-13.39-.41-28.42-7.449-40.06a14 14 0 0 0 3.004-1.14 1.85 1.85 0 0 0-.06.8"/><path fill="#66B1FF" d="M130.714 172.184c0 3.35-47.318 4-59.073 1a2.683 2.683 0 0 1-2.002-3.15 64.97 64.97 0 0 0-2.443-34.78l-1.703-6.48c-12.014-33 33.372-49.47 52.275-15.69a46.9 46.9 0 0 1 5.717 22.81c.081 18.54-5.496 21.07-5.496 21.07a31 31 0 0 1 4.105 1.21c6.838 2.6 8.62 7.12 8.62 14.01m101.075-107.13a11.45 11.45 0 0 0-9.772-1.18c-2.103-.48-5.817-.94-7.84-.2-3.464 1.27-7.009 4.71-7.9 8.29.811 2.07 9.012 3.44 10.013 2.58 1.241 1.88 4.005 2.67 8.43.94.881 1.32 1.352 2.48 2.784 2.87 4.475-3.38 11.013-4.48 15.088-8.36-2.473-5.22-7.279-5.68-10.803-4.94"/><path fill="#20277B" d="m244.995 68.334 12.997-2.86-.781 46.29-15.199-3.39z"/><path fill="#20277B" d="M246.518 108.974c10.285 0 18.623-9.12 18.623-20.37s-8.338-20.37-18.623-20.37-18.623 9.12-18.623 20.37 8.337 20.37 18.623 20.37"/><path fill="#4049B4" d="M258.825 111.755c11.695 0 21.176-10.365 21.176-23.15 0-12.786-9.481-23.15-21.176-23.15-11.696 0-21.177 10.364-21.177 23.15s9.481 23.15 21.177 23.15"/><path fill="#66B1FF" d="M258.823 107.104c9.08 0 16.441-8.408 16.441-18.78 0-10.371-7.361-18.78-16.441-18.78s-16.44 8.409-16.44 18.78 7.36 18.78 16.44 18.78"/><path fill="#fff" d="M246.229 90.664a10.4 10.4 0 0 0 2.496 5.725 10.45 10.45 0 0 0 5.324 3.275c7.369 1.94 12.926-3.28 14.758-6.92A10.87 10.87 0 0 0 266.2 80.1a10.9 10.9 0 0 0-3.971-2.275c-9.532-2.73-16.48 3.34-16.02 12.82z"/><path fill="#333334" d="M261.057 93.824a5.73 5.73 0 0 0 5.107-3.79 5.71 5.71 0 0 0-1.551-6.164 5.73 5.73 0 0 0-8.757 1.303 5.72 5.72 0 0 0 1.071 7.18 5.73 5.73 0 0 0 4.13 1.47"/><path fill="#66B1FF" d="m274.123 83.344-29.486 1.26 3.614-9.5 21.527.19zm-3.845 16.76-22.608.64-3.004-8.36s15.74-3.24 28.726-.07c-1.332 3.13-3.114 7.79-3.114 7.79"/><path fill="#20277B" d="m202.784 68.334 12.997-2.86-.781 46.29-15.199-3.39z"/><path fill="#20277B" d="M204.307 108.974c10.285 0 18.623-9.12 18.623-20.37s-8.338-20.37-18.623-20.37-18.623 9.12-18.623 20.37 8.337 20.37 18.623 20.37"/><path fill="#4049B4" d="M216.612 111.755c11.695 0 21.176-10.365 21.176-23.15 0-12.786-9.481-23.15-21.176-23.15-11.696 0-21.176 10.364-21.176 23.15s9.48 23.15 21.176 23.15"/><path fill="#66B1FF" d="M216.612 107.104c9.08 0 16.441-8.408 16.441-18.78 0-10.371-7.361-18.78-16.441-18.78s-16.44 8.409-16.44 18.78 7.36 18.78 16.44 18.78"/><path fill="#fff" d="M229.338 90.664a10.4 10.4 0 0 1-2.5 5.728 10.45 10.45 0 0 1-5.33 3.272c-7.369 1.94-12.916-3.28-14.748-6.92a10.88 10.88 0 0 1-.081-8.937 10.88 10.88 0 0 1 6.649-5.983c9.542-2.73 16.481 3.34 16.02 12.82z"/><path fill="#333334" d="M219.463 94.354a5.73 5.73 0 0 1-5.107-3.79 5.72 5.72 0 0 1 4.558-7.581 5.73 5.73 0 0 1 5.75 2.72c.582.97.863 2.091.807 3.221a5.7 5.7 0 0 1-1.875 3.962 5.7 5.7 0 0 1-4.133 1.468"/><path fill="#66B1FF" d="m205.997 83.324 24.21 1.28-2.312-8.93-22.108-.7zm-.901 17.451 22.027 1.14 3.484-9.32s-3.374-2.48-26.783-.18c.621 2.85 1.272 8.36 1.272 8.36"/><path fill="#fff" d="m207.691 81.384 6.948-6.09a2.57 2.57 0 0 0 1.142-1.84 1.65 1.65 0 0 0-1.081-1.35 3.8 3.8 0 0 0-1.803-.11c-8.971 1.06-9.151 12.84-5.206 9.39m41.931.041 7.169-5.82c.58-.47 1.211-1 1.201-1.79a1.62 1.62 0 0 0-1.001-1.39 3.7 3.7 0 0 0-1.802-.18c-9.032.72-9.642 12.53-5.567 9.18"/><path fill="url(#paint0_linear_5373_168)" d="M194.954 129.105c1.823 8 6.438 16.47 4.115 24.4-7.639 26.27-53.376 20.63-54.597-10.17-.831-21 .51-35.66 6.117-55.84 3.304-11.92 12.295-22 23.619-23.5a21 21 0 0 1 2.844-.19l.23-.16.181-.11q.122-.093.26-.16a14.6 14.6 0 0 1 11.704-1.26q1.027.323 2.003.78s.17-.07.5-.17c2.203-.69 10.504-2.71 12.106 5.34l-7.259 2.4-.842 2.2a55.4 55.4 0 0 1-9.291 19c2.783 12.43 5.477 24.97 8.31 37.44"/><path fill="#0F8AEF" d="M174.208 63.994a21 21 0 0 1 2.843-.19 22.7 22.7 0 0 0-6.067 6.06.82.82 0 0 1-.661.37.78.78 0 0 1-.661-1.2 22.9 22.9 0 0 1 4.546-5.04m9.987 5.167a.77.77 0 0 1-.611.3.791.791 0 0 1-.611-1.27c2.073-2.62 3.785-4.6 6.519-6.06q1.027.324 2.002.78c-.933.4-2.386 1.133-7.299 6.25"/><path fill="#00A743" d="M229.247 156.655a11.42 11.42 0 0 0-13.596-6.16c5.386-11.79.67-27.25-10.383-34-11.054-6.75-26.343-3.43-34.443 6.7-.651-2-20.295-7.28-33.972 18.21a43.43 43.43 0 0 0-4.286 29.17l.681 2.08h93.837c3.484-4.5 4.615-10.88 2.162-16m-78.868-37.74c6.898-2.54 11.404-7.53 10.062-11.13-.631-1.7-2.453-2.79-4.926-3.2a24 24 0 0 0 4.355-3.87c4.856-5.51 6.448-12 3.565-14.57s-9.172-.14-14.018 5.37c-4.716 5.34-6.338 11.63-3.794 14.32h-.06c-6.899 2.55-11.405 7.53-10.063 11.14s8 4.49 14.879 1.94"/><path fill="#FF4E3B" d="M56.833 47.095c-2.784-3.85-6.238-7-11.364-2.42a8.54 8.54 0 0 0-2.333 9.63c-1.893.94-3.194 2.47-3.134 4.09.1 2.66 3.554 4.7 7.72 4.55 3.534-.17 6.438-1.79 7.179-3.91q.332-.186.64-.41c3.495-2.52 4.075-7.68 1.292-11.53"/><path fill="#AC2E07" d="M59.265 58.614c.53-.75-2.604-3.07-4.005-1.84a5.06 5.06 0 0 0-1.652 2.38c-.27.19-.541.39-.811.62-1.422 1.23-2.233 2.63-1.803 3.12s5.838-.92 8.27-4.28"/><path fill="#0F8AEF" d="M126.349 172.935a.8.8 0 0 1-.156.573.8.8 0 0 1-.515.297h-.1a.786.786 0 0 1-.771-.68c-1.232-9.17-10.273-13.17-11.244-13.57a14.5 14.5 0 0 0-4.155 2.91.78.78 0 0 1-.581.26.786.786 0 0 1-.779-.731.78.78 0 0 1 .188-.559 16.02 16.02 0 0 1 9.803-4.44c1.394.307 2.766.711 4.105 1.21-1.642 0-5.127-.06-6.508.6 3.063 1.61 9.591 5.97 10.713 14.13"/><path fill="#9BE9AB" d="M154.786 103.695c-6.768-1.21-14.067 1.93-19.023 8.21a.77.77 0 0 0 .13 1.09.73.73 0 0 0 .48.17.8.8 0 0 0 .611-.29c4.626-5.83 11.354-8.75 17.562-7.64a.783.783 0 0 0 .776-1.219.78.78 0 0 0-.506-.321zm18.953 49.079a31.6 31.6 0 0 0-4.496 3.5.8.8 0 0 0-.247.545.785.785 0 0 0 .758.806.78.78 0 0 0 .56-.211 30 30 0 0 1 4.276-3.33c6.808-4.42 14.247-5.56 16.24-2.5.911 1.4.551 3.64-1.001 6.14a25.7 25.7 0 0 1-7.91 7.67c-4.315 2.8-8.951 4.37-12.406 4.2a.8.8 0 0 0-.564.2.784.784 0 0 0-.056 1.103.78.78 0 0 0 .54.257h.581c3.695 0 8.411-1.64 12.756-4.46a27.3 27.3 0 0 0 8.39-8.16c1.893-3.08 2.233-5.86 1.002-7.81-2.554-3.85-10.644-2.95-18.423 2.05m67.964-36.759c-13.607.07-20.415 7.69-23.169 12-.661-8.93-7.469-15.3-18.092-16.58-16.841-2-37.046 9.79-41.231 35.75a.78.78 0 0 0 .64.89h.131a.79.79 0 0 0 .771-.65c4.055-25 23.379-36.41 39.499-34.46 10.933 1.33 17.491 8.42 16.71 18.07a.79.79 0 0 0 .611.82.784.784 0 0 0 .901-.48c.21-.56 5.517-13.68 23.239-13.77a.78.78 0 0 0 .781-.78.78.78 0 0 0-.781-.78z"/><defs><linearGradient id="paint0_linear_5373_168" x1="174.141" x2="174" y1="61.428" y2="95.5" gradientUnits="userSpaceOnUse"><stop stop-color="#429FFF"/><stop offset="1" stop-color="#66B1FF"/></linearGradient></defs></svg>