<svg width="12" height="4" viewBox="0 0 12 4" fill="none" xmlns="http://www.w3.org/2000/svg">
<path d="M2.04688 3.08C1.68421 3.08 1.39088 2.968 1.16688 2.744C0.953542 2.52 0.846875 2.232 0.846875 1.88C0.846875 1.53867 0.953542 1.26133 1.16688 1.048C1.39088 0.824 1.68421 0.712 2.04688 0.712C2.42021 0.712 2.70821 0.824 2.91088 1.048C3.12421 1.26133 3.23088 1.53867 3.23088 1.88C3.23088 2.232 3.12421 2.52 2.91088 2.744C2.70821 2.968 2.42021 3.08 2.04688 3.08ZM6.01562 3.08C5.65296 3.08 5.35963 2.968 5.13563 2.744C4.92229 2.52 4.81563 2.232 4.81563 1.88C4.81563 1.53867 4.92229 1.26133 5.13563 1.048C5.35963 0.824 5.65296 0.712 6.01562 0.712C6.38896 0.712 6.67696 0.824 6.87963 1.048C7.09296 1.26133 7.19963 1.53867 7.19963 1.88C7.19963 2.232 7.09296 2.52 6.87963 2.744C6.67696 2.968 6.38896 3.08 6.01562 3.08ZM9.98438 3.08C9.62171 3.08 9.32838 2.968 9.10438 2.744C8.89104 2.52 8.78438 2.232 8.78438 1.88C8.78438 1.53867 8.89104 1.26133 9.10438 1.048C9.32838 0.824 9.62171 0.712 9.98438 0.712C10.3577 0.712 10.6457 0.824 10.8484 1.048C11.0617 1.26133 11.1684 1.53867 11.1684 1.88C11.1684 2.232 11.0617 2.52 10.8484 2.744C10.6457 2.968 10.3577 3.08 9.98438 3.08Z" fill="#0073E6"/>
</svg>
