<svg xmlns="http://www.w3.org/2000/svg" width="200" height="200" fill="none" viewBox="0 0 200 200"><path fill="#66B1FF" d="m109.87 61.509-.44-.79.84-.94s-7.5-4.61-7.39-10.23c.07-3.07 1.89-16 3.49-19.47s7-9.36 17.1-10.38c7.14-.73 12.55.31 17.3 3.49 5.63 3.77 10.07 14 10.07 14s4.88 1.72 5.92 3.33c3 4.65-4 17-9.2 20.46a56 56 0 0 0 .95 7.75l-38.39 4.64c.2-1.35.05-11.24-.25-11.86"/><path fill="url(#paint0_linear_6_8868)" d="M112.58 27.689c-.15-.37 2.64-11.22 9.68-6 1.77 1.33-.83 9.85-3.1 10.29-1.8.37-5.76-2.24-6.58-4.33z"/><path fill="url(#paint1_linear_6_8868)" d="M150.54 36.539s-4.81 1.21-5.54 3.83.28 16.69 6.31 17.14c0 0 11-3.28 8.41-17.5-.32-1.76-4.25-2.94-4.25-2.94z"/><path fill="#0073E6" d="M160.36 39.239c-.08-.95-2.41-1.84-4.93-2.16-.76.46-2.27 1.54-1.77 2.59.61 1.26 5.6 5 6.36 5.56.616-1.937.733-3.997.34-5.99"/><path fill="#66B1FF" d="M140.271 35.419a8.44 8.44 0 0 1 4.58-.89c1.579.13 3.089.71 4.35 1.67-.31.4-.57.71-.89 1.11-2.78.16-5.69.19-8.46.36.15-.79.32-1.47.42-2.25m-30.451 23.95C98 71.689 88.65 86.109 85.4 93.139s-7.89 16.89 0 27.59c6.41 8.75 15.1 8.44 24.06 9s25.69.43 28.58-15.5c2.46-13.54-3.17-39.06-5-46.77z"/><path fill="#66B1FF" d="M93.82 128.049c3.69 11.63.85 19.34.85 19.34.21.27-.73 2.34 1 3 6.75 2.7 31.82 2.32 32.94.73.91-1.29.33-8-6.69-7.66 0 0 4.72.5 3.32-15.48-.8-9.61-38.24-21.61-31.42.07m-8.46-7.321c-5.37.06-7.8.37-9.4-5.07-1-3.4.28-6.59 5.23-6.38s4.17 11.45 4.17 11.45"/><path fill="url(#paint2_linear_6_8868)" d="M138.001 114.259c1.66-9.18-.3-23.85-2.29-34.75-1.91.17-4.15 1.15-6.68 3.57-9.14 8.73-1.92 27.52.62 32a40.4 40.4 0 0 0 5 7.17 18.6 18.6 0 0 0 3.34-8z"/><path fill="#0073E6" d="M123.07 179.369a11.42 11.42 0 1 1-22.649 2.956 11.42 11.42 0 0 1 22.649-2.956m46.12-16.28a11.42 11.42 0 1 1-22.647 2.959 11.42 11.42 0 0 1 22.647-2.959"/><path fill="#0073E6" fill-rule="evenodd" d="M25.46 89.108a7.92 7.92 0 0 1 6.89-8l20.59-2.74a7.91 7.91 0 0 1 8 4l10.5 19 92.81-27.81a7.92 7.92 0 0 1 10.2 7.57l.09 47.37a15.84 15.84 0 0 1-10.67 15l-62.1 21.42a15.88 15.88 0 0 1-19.3-7.76l-21.84-42.7-8.93-16-19-1.6a7.93 7.93 0 0 1-7.24-7.72z" clip-rule="evenodd"/><path fill="#67B2FF" fill-rule="evenodd" d="M78.91 167.368a2 2 0 0 1-.75 2.7l-32.74 18.491a2 2 0 0 1-1.45.099 2 2 0 0 1-1.14-.9 1.92 1.92 0 0 1-.22-1.44 2 2 0 0 1 .81-1.209l32.74-18.53a2 2 0 0 1 .75-.261c.265-.029.533-.009.79.06.255.073.493.195.7.36.215.17.39.385.51.63m-3.18-8.669a2 2 0 0 1-1.21 2.53l-31.06 11a2.1 2.1 0 0 1-.82.23 2.2 2.2 0 0 1-.84-.13 2 2 0 0 1-.71-.48 1.9 1.9 0 0 1-.45-.72 2 2 0 0 1-.11-.85c.032-.285.12-.56.26-.81.137-.252.333-.468.57-.63a1.9 1.9 0 0 1 .78-.34l31.06-11a2 2 0 0 1 2.53 1.2" clip-rule="evenodd"/><path fill="url(#paint3_linear_6_8868)" d="m168.07 76.889-57.79 11.48s-6.35-1.68-6.58-10.38l16.16-7.62c8.13-2.85 16.93-6.21 29.77-6.59 4.34-.14 15.14-.4 17.92 6.4.264.641.448 1.313.55 2q.122.835.11 1.68s.86 1.8-.14 3.03"/><path fill="#66B1FF" d="M168.25 74.039a.25.25 0 0 1-.12 0 .3.3 0 0 1-.08-.08c-2.41-5-9.15-5.95-9.22-6h-.07v-.18a.14.14 0 0 1 0-.07.13.13 0 0 1 .05-.05.1.1 0 0 1 .06 0h.07c.07 0 7 1 9.5 6.16q.007.03 0 .06a.14.14 0 0 1 0 .07q.01.03 0 .06h-.06zm-3.56 5.58a.17.17 0 0 1-.12 0 .3.3 0 0 1-.08-.08c-2.42-4.38-9.06-4.24-9.13-4.24a.21.21 0 0 1-.19-.19.2.2 0 0 1 0-.07.2.2 0 0 1 0-.07h.13c.07 0 6.94-.15 9.47 4.44v.07a.2.2 0 0 1 0 .07v.07h-.12z"/><path fill="url(#paint4_linear_6_8868)" d="M143.25 80.529c5.3 2.11 9.65 2.42 14.48-.63 1.015.498 2.077.893 3.17 1.18a4.8 4.8 0 0 0 3-.49 3 3 0 0 0 1.1-1.09c.263-.452.397-.967.39-1.49a2.29 2.29 0 0 0 2.64.14c.361-.262.655-.604.86-1 .21-.398.32-.84.32-1.29a5.55 5.55 0 0 0-.62-2.59c-2-4.33-7-6.85-11.79-6.63a17.83 17.83 0 0 0-12.36 6.48c-1.94 2.26-.91 4.47-1.24 7.44"/><path fill="#91C7FF" d="M165.3 78.239a.35.35 0 0 1-.3-.19 14.45 14.45 0 0 0-7.6-7.22.33.33 0 1 1 .25-.61 15.1 15.1 0 0 1 7.95 7.55q.03.058.034.123a.3.3 0 0 1-.087.235.3.3 0 0 1-.107.072.23.23 0 0 1-.14.04m2.771-6.071a11.25 11.25 0 0 0-5.24-5 .4.4 0 0 1-.11-.07.25.25 0 0 1-.07-.11.3.3 0 0 1 0-.12.26.26 0 0 1 0-.13.35.35 0 0 1 .18-.18.4.4 0 0 1 .26 0 10.9 10.9 0 0 1 4.44 3.57c.264.655.446 1.34.54 2.04"/><path fill="#0073E6" d="M149.291 43.979h-.1a.42.42 0 0 1-.3-.5 4.2 4.2 0 0 1 2.56-2.83.41.41 0 0 1 .52.24.41.41 0 0 1-.23.53 3.34 3.34 0 0 0-1.3.89c-.36.39-.618.865-.75 1.38a.41.41 0 0 1-.4.29"/><path fill="#0073E6" d="M158.8 50.419c-5.45 0-8.29-5.12-8.79-8.35a.4.4 0 0 1 .006-.16.4.4 0 0 1 .334-.31.42.42 0 0 1 .47.34c.46 3 3 7.66 8 7.66a.41.41 0 1 1-.02.82"/><path fill="#fff" d="M146.731 32.279c.55 2.08 1.28 3.75-1.86 4.6-.68.18-2.22-2.06-2.62-3.25-.55-1.62-.94-3.92 0-4.27 2.07-.72 3.93.83 4.48 2.92"/><path fill="#333334" d="M146.79 32.029a5 5 0 0 0-1.74-2.28l-.11-.08a2 2 0 0 0-.18.17 2.3 2.3 0 0 0-.44 1.67 4.7 4.7 0 0 0 .66 2.11 2.83 2.83 0 0 0 1.72 1.4q.24.021.48 0a7.1 7.1 0 0 0-.39-2.99"/><path fill="#B15A08" d="m126.351 31.079 8.26 14.29a9.116 9.116 0 0 1-6.13 13.513 9.1 9.1 0 0 1-5.64-.703l-4-1.9-13.2-1.59 3.53-18.42z"/><path fill="#B15A08" d="M147.65 62.899a47.8 47.8 0 0 1-21.52-11.08l1.87-2.09a44.9 44.9 0 0 0 20.25 10.42z"/><path fill="#FF8716" d="M126.7 56.369a6.45 6.45 0 0 1-2.73-.61l-5.06-2.39a.35.35 0 0 1-.16-.44.33.33 0 0 1 .187-.172.33.33 0 0 1 .253.012l5.07 2.36a5.6 5.6 0 0 0 2.6.55 5.77 5.77 0 0 0 4.88-2.95 5.7 5.7 0 0 0 .74-2.85 5.83 5.83 0 0 0-.75-2.85l-7.08-12.25a.33.33 0 0 1 .031-.367.33.33 0 0 1 .348-.112.34.34 0 0 1 .201.149l7.07 12.26a6.45 6.45 0 0 1-2.27 8.7c-.955.57-2.038.89-3.15.93z"/><path fill="#FF8716" d="M145.49 20.369c-.04.442-.18.87-.41 1.25a3.1 3.1 0 0 1-.91 1l-1.38.91-1.06.7-5.82 3.83-.06.05a5.36 5.36 0 0 0-2.23 3.21 6.72 6.72 0 0 1-5.62 4.82c-6.59.42-14.35 5.37-13 16.84.18 1.66-.53 2.37-1.65 3.54l-4.22 3.6a65 65 0 0 1-10.56-10.3 22.66 22.66 0 0 1-3.72-19.08 24.33 24.33 0 0 1 9-13.59l2.44-1.85 3.61-2.73q1.291-.976 2.7-1.77a23.88 23.88 0 0 1 28.1 3.45l4 3.7a3 3 0 0 1 .88 2.42z"/><path fill="#fff" d="m141.731 24.189-5.87 3.89c-11.47-13.56-25.27-10.17-28-9.3a20.9 20.9 0 0 0-9.3 6.06c-1.548 1.748-2.846 3.794-3.727 5.957 1.309-5.75 4.548-10.306 9.021-13.666l2.435-1.835 3.61-2.731a24 24 0 0 1 2.71-1.768c9.22-.74 20.281 2.573 29.121 13.393"/><path fill="#0073E6" d="M136.931 26.929a4.5 4.5 0 0 1 .36-1.71 4.3 4.3 0 0 1 1-1.43 4.1 4.1 0 0 1 2-1.25c1-.21 3 .24 2.74 2-.1.61-1.1 1-1.6 1.68-.86 1.06-1.47 2.3-2 2.56a2 2 0 0 1-.88 0 2 2 0 0 1-.8-.37 1.86 1.86 0 0 1-.57-.68 2.1 2.1 0 0 1-.25-.8"/><defs><linearGradient id="paint0_linear_6_8868" x1="114.59" x2="122.15" y1="22.738" y2="28.919" gradientUnits="userSpaceOnUse"><stop stop-color="#0F8AEF"/><stop offset=".19" stop-color="#148CF0"/><stop offset=".43" stop-color="#2493F3"/><stop offset=".7" stop-color="#3F9FF7"/><stop offset=".99" stop-color="#64B0FE"/><stop offset="1" stop-color="#66B1FF"/></linearGradient><linearGradient id="paint1_linear_6_8868" x1="145.09" x2="160.38" y1="47.629" y2="46.069" gradientUnits="userSpaceOnUse"><stop stop-color="#fff"/><stop offset=".32" stop-color="#FBFDFF"/><stop offset=".49" stop-color="#F2F9FF"/><stop offset=".77" stop-color="#D9EEFF"/><stop offset="1" stop-color="#C0E4FF"/></linearGradient><linearGradient id="paint2_linear_6_8868" x1="124.921" x2="139.511" y1="100.469" y2="101.049" gradientUnits="userSpaceOnUse"><stop stop-color="#fff"/><stop offset=".32" stop-color="#FBFDFF"/><stop offset=".49" stop-color="#F2F9FF"/><stop offset=".77" stop-color="#D9EEFF"/><stop offset="1" stop-color="#C0E4FF"/></linearGradient><linearGradient id="paint3_linear_6_8868" x1="172.89" x2="111.01" y1="75.659" y2="76.189" gradientUnits="userSpaceOnUse"><stop stop-color="#0F8AEF"/><stop offset=".3" stop-color="#2B96F4"/><stop offset="1" stop-color="#66B1FF"/></linearGradient><linearGradient id="paint4_linear_6_8868" x1="172.85" x2="115.45" y1="73.839" y2="75.439" gradientUnits="userSpaceOnUse"><stop stop-color="#0F8AEF"/><stop offset=".35" stop-color="#2B96F4"/><stop offset=".83" stop-color="#66B1FF"/></linearGradient></defs></svg>